<?xml version="1.0" encoding="utf-8"?>
<!-- Generator: Adobe Illustrator 16.0.0, SVG Export Plug-In . SVG Version: 6.00 Build 0)  -->
<!DOCTYPE svg PUBLIC "-//W3C//DTD SVG 1.1//EN" "http://www.w3.org/Graphics/SVG/1.1/DTD/svg11.dtd">
<svg version="1.1" id="Layer_1" xmlns="http://www.w3.org/2000/svg" xmlns:xlink="http://www.w3.org/1999/xlink" x="0px" y="0px"
	 width="282px" height="66px" viewBox="0 0 282 66" enable-background="new 0 0 282 66" xml:space="preserve">
<g>
	<g>
		<path fill="#FFFFFF" d="M241.572,20.965c-0.131,0.017-0.262,0.05-0.396,0.05c-2.764,0.003-5.53,0.002-8.295,0.002
			c-0.135,0-0.269,0-0.452,0c0,9.423,0,18.822,0,28.242c-2.978,0-5.904,0-8.865,0c0-9.407,0-18.799,0-28.235
			c-3.072,0-6.111,0-9.174,0c0-2.329,0-4.616,0-6.923c0.108-0.007,0.207-0.019,0.303-0.019c8.871-0.001,17.74-0.001,26.608-0.001
			c0.091,0,0.181,0.003,0.271,0.004C241.572,16.378,241.572,18.671,241.572,20.965z"/>
		<path fill="#FFFFFF" d="M40.428,55.838c1.157-0.008,2.313-0.025,3.47-0.018c0.684,0.007,1.377-0.01,2.047,0.102
			c1.543,0.252,2.393,1.865,1.783,3.281c-0.249,0.577-0.689,0.923-1.326,1.097c0.231,0.099,0.425,0.164,0.604,0.257
			c1.028,0.535,1.552,1.635,1.361,2.838c-0.196,1.229-1.041,2.082-2.284,2.285c-0.297,0.047-0.601,0.074-0.903,0.074
			c-1.585,0.007-3.169,0.001-4.753,0C40.428,62.448,40.428,59.145,40.428,55.838z M42.313,64.126c0.993,0,1.957,0.041,2.916-0.013
			c0.725-0.041,1.18-0.547,1.256-1.228c0.071-0.643-0.343-1.308-1-1.503c-0.36-0.105-0.748-0.139-1.126-0.15
			c-0.678-0.022-1.357-0.006-2.046-0.006C42.313,62.213,42.313,63.152,42.313,64.126z M42.302,59.845
			c0.894-0.036,1.734-0.036,2.568-0.114c0.664-0.063,1.117-0.565,1.134-1.138c0.018-0.567-0.387-1.106-1.031-1.179
			c-0.873-0.1-1.757-0.091-2.671-0.132c0,0.183,0,0.294,0,0.403C42.302,58.379,42.302,59.074,42.302,59.845z"/>
		<path fill="#FFFFFF" d="M198.605,66.023c-0.586-0.209-1.232-0.318-1.746-0.642c-1.449-0.911-2.213-2.289-2.359-3.987
			c-0.113-1.326,0.084-2.605,0.842-3.735c1.102-1.647,2.693-2.32,4.617-2.052c2.055,0.287,3.363,1.537,3.887,3.521
			c0.439,1.666,0.279,3.305-0.666,4.79c-0.736,1.159-1.785,1.869-3.168,2.046c-0.066,0.01-0.129,0.038-0.193,0.059
			C199.414,66.023,199.01,66.023,198.605,66.023z M196.381,60.906c0.045,0.271,0.09,0.769,0.221,1.238
			c0.344,1.225,1.312,2.051,2.422,2.125c1.242,0.082,2.299-0.506,2.781-1.654c0.598-1.42,0.525-2.844-0.316-4.148
			c-1.069-1.662-3.442-1.619-4.512,0.042C196.547,59.175,196.422,59.919,196.381,60.906z"/>
		<path fill="#FFFFFF" d="M172.568,66.023c-0.15-0.034-0.303-0.068-0.453-0.103c-1.859-0.413-3.184-1.825-3.52-3.769
			c-0.218-1.234-0.207-2.455,0.243-3.646c0.688-1.819,2.315-2.929,4.259-2.948c1.233-0.014,2.325,0.306,3.196,1.221
			c0.433,0.453,0.877,1.339,0.924,1.857c-0.586,0.151-1.178,0.305-1.788,0.463c-0.132-0.554-0.332-1.033-0.771-1.377
			c-1.134-0.885-2.896-0.518-3.625,0.816c-0.777,1.415-0.75,2.896-0.048,4.328c0.464,0.949,1.316,1.4,2.365,1.378
			c1.096-0.024,1.748-0.704,2.191-1.636c0.029-0.061,0.045-0.125,0.07-0.188c0.021-0.052,0.049-0.102,0.082-0.171
			c0.582,0.242,1.154,0.479,1.756,0.729c-0.664,1.615-1.762,2.658-3.484,2.975c-0.086,0.016-0.17,0.045-0.254,0.066
			C173.332,66.023,172.949,66.023,172.568,66.023z"/>
		<path fill="#FFFFFF" d="M56.251,14.081c0.139,0,0.25,0,0.362,0c2.641,0,5.283,0.005,7.925-0.008
			c0.267-0.001,0.391,0.096,0.517,0.312c4.121,7.081,8.248,14.158,12.375,21.234c0.078,0.133,0.159,0.265,0.305,0.387
			c-0.116-7.29-0.232-14.581-0.348-21.898c2.81,0,5.601,0,8.413,0c0,11.707,0,23.416,0,35.172c-0.119,0-0.238,0-0.356,0
			c-2.642,0-5.284-0.005-7.925,0.006c-0.247,0.001-0.375-0.079-0.499-0.291c-4.109-7.022-8.226-14.039-12.342-21.057
			c-0.059-0.102-0.126-0.199-0.254-0.281c0.099,7.192,0.198,14.385,0.298,21.6c-2.838,0-5.642,0-8.47,0
			C56.251,37.541,56.251,25.834,56.251,14.081z"/>
		<path fill="#FFFFFF" d="M174.057,21.02c-2.225,1.343-4.432,2.676-6.668,4.026c-0.119-0.176-0.231-0.339-0.344-0.503
			c-0.936-1.398-2.027-2.635-3.549-3.425c-1.512-0.785-3.125-1.069-4.82-0.983c-1.328,0.067-2.611,0.304-3.793,0.931
			c-1.916,1.02-3.121,2.664-3.91,4.638c-0.895,2.243-1.106,4.586-0.957,6.977c0.105,1.724,0.414,3.402,1.033,5.021
			c1.135,2.967,3.371,4.563,6.416,5.112c1.844,0.332,3.67,0.238,5.412-0.541c2.236-1,3.555-2.703,3.893-5.146
			c0.031-0.229,0.06-0.459,0.095-0.718c-2.63,0-5.222,0-7.835,0c0-2.232,0-4.439,0-6.663c5.091,0,10.166,0,15.267,0
			c0,6.495,0,12.985,0,19.504c-2.269,0-4.539,0-6.846,0c0-1.044,0-2.083,0-3.209c-0.177,0.142-0.3,0.228-0.408,0.328
			c-2.062,1.938-4.5,3.103-7.289,3.489c-4.832,0.673-9.231-0.293-12.933-3.637c-2.454-2.219-3.922-5.043-4.801-8.195
			c-0.667-2.398-0.924-4.853-0.806-7.333c0.176-3.715,1.063-7.237,3.123-10.381c2.483-3.797,6.019-6.111,10.437-7.033
			c4.055-0.845,7.996-0.41,11.762,1.346c2.781,1.296,5.066,3.218,6.951,5.629c0.166,0.213,0.33,0.426,0.496,0.639
			C174,20.922,174.016,20.952,174.057,21.02z"/>
		<path fill="#FFFFFF" d="M201.754,26.759c0-4.231,0-8.432,0-12.655c2.943,0,5.859,0,8.791,0c0,11.722,0,23.429,0,35.155
			c-2.926,0-5.83,0-8.785,0c0-4.993,0-9.976,0-14.979c-4.303,0-8.557,0-12.852,0c0,4.977,0,9.961,0,14.973c-2.984,0-5.932,0-8.896,0
			c0-11.713,0-23.42,0-35.149c2.967,0,5.926,0,8.926,0c0,4.216,0,8.425,0,12.656C193.217,26.759,197.459,26.759,201.754,26.759z"/>
		<path fill="#FFFFFF" d="M121.394,19.866c-2.166,1.547-4.311,3.08-6.484,4.632c-0.287-0.268-0.575-0.53-0.855-0.798
			c-1.419-1.351-3.022-2.409-4.911-2.968c-1.872-0.556-3.771-0.85-5.697-0.243c-1.179,0.371-2.148,1.028-2.706,2.169
			c-0.753,1.544-0.062,3.257,1.65,3.876c0.897,0.323,1.864,0.498,2.815,0.617c2.785,0.35,5.54,0.856,8.278,1.465
			c1.533,0.341,3.011,0.794,4.348,1.644c2.145,1.364,3.428,3.303,3.802,5.809c0.824,5.508-2.076,10.418-7.366,12.543
			c-1.647,0.66-3.362,1.019-5.119,1.229c-1.588,0.188-3.179,0.267-4.775,0.188c-4.281-0.201-8.244-1.331-11.665-4.029
			c-1.136-0.896-2.06-1.989-3.003-3.118c2.242-1.403,4.455-2.79,6.613-4.142c0.784,0.668,1.503,1.367,2.308,1.947
			c1.734,1.25,3.708,1.936,5.808,2.269c1.667,0.264,3.333,0.293,4.97-0.201c1.228-0.371,2.343-0.94,3.102-2.019
			c1.018-1.446,0.62-3.188-0.91-4.076c-0.897-0.521-1.89-0.768-2.9-0.919c-1.919-0.289-3.849-0.515-5.764-0.823
			c-2.162-0.35-4.298-0.823-6.27-1.829c-1.984-1.013-3.509-2.487-4.392-4.562c-0.396-0.928-0.557-1.916-0.592-2.919
			c-0.084-2.374,0.239-4.658,1.558-6.706c1.385-2.15,3.362-3.552,5.709-4.472c1.899-0.745,3.881-1.083,5.913-1.172
			c3.66-0.161,7.141,0.514,10.426,2.159c2.016,1.01,3.778,2.375,5.45,3.869C120.943,19.472,121.155,19.656,121.394,19.866z"/>
		<path fill="#FFFFFF" d="M49.393,14.106c0,11.724,0,23.421,0,35.147c-2.914,0-5.817,0-8.744,0c0-11.71,0-23.416,0-35.147
			C43.551,14.106,46.455,14.106,49.393,14.106z"/>
		<path fill="#FFFFFF" d="M135.666,49.26c-2.918,0-5.813,0-8.727,0c0-11.727,0-23.433,0-35.159c2.911,0,5.805,0,8.727,0
			C135.666,25.812,135.666,37.518,135.666,49.26z"/>
		<path fill="#FFFFFF" d="M223.723,65.748c-0.637,0-1.207,0-1.805,0c0-3.311,0-6.607,0-9.934c0.889,0,1.781,0,2.705,0
			c0.639,2.41,1.279,4.832,1.92,7.256c0.02,0,0.037,0.002,0.055,0.003c0.633-2.425,1.267-4.851,1.898-7.271c0.904,0,1.775,0,2.67,0
			c0,3.313,0,6.611,0,9.932c-0.592,0-1.18,0-1.791,0c0.059-2.625,0.119-5.233,0.176-7.844c-0.02-0.006-0.041-0.012-0.063-0.016
			c-0.695,2.621-1.391,5.242-2.09,7.881c-0.523,0-1.031,0.016-1.535-0.013c-0.084-0.007-0.205-0.173-0.236-0.284
			c-0.559-2.078-1.105-4.157-1.656-6.236c-0.117-0.441-0.234-0.883-0.418-1.316C223.607,60.51,223.664,63.111,223.723,65.748z"/>
		<path fill="#FFFFFF" d="M142.834,65.725c0-3.314,0-6.604,0-9.888c0.035-0.021,0.053-0.041,0.072-0.041
			c1.516,0.017,3.037-0.04,4.547,0.071c1.494,0.111,2.609,0.932,3.246,2.302c0.744,1.612,0.779,3.29,0.184,4.949
			c-0.617,1.72-1.959,2.53-3.723,2.614c-1.4,0.067-2.809,0.021-4.213,0.021C142.916,65.754,142.885,65.738,142.834,65.725z
			 M144.684,64.134c0.939-0.063,1.859-0.073,2.765-0.198c0.883-0.125,1.426-0.701,1.655-1.565c0.254-0.94,0.273-1.89,0.039-2.832
			c-0.297-1.206-1.145-1.927-2.387-2.021c-0.57-0.045-1.145-0.013-1.717-0.045c-0.295-0.015-0.385,0.071-0.383,0.375
			c0.016,1.955,0.008,3.912,0.008,5.868C144.664,63.824,144.674,63.936,144.684,64.134z"/>
		<path fill="#FFFFFF" d="M124.548,55.813c0,3.313,0,6.604,0,9.942c-0.518,0-1.031,0.013-1.542-0.011
			c-0.087-0.005-0.188-0.143-0.249-0.24c-1.32-2.099-2.634-4.203-3.95-6.306c-0.063-0.099-0.128-0.194-0.254-0.267
			c0.038,2.26,0.075,4.52,0.113,6.801c-0.606,0-1.193,0-1.799,0c0-3.309,0-6.606,0-9.945c0.526,0,1.04-0.014,1.552,0.013
			c0.094,0.007,0.201,0.155,0.267,0.261c1.303,2.058,2.602,4.117,3.901,6.176c0.092,0.147,0.189,0.293,0.357,0.416
			c-0.072-2.271-0.145-4.543-0.218-6.84C123.329,55.813,123.917,55.813,124.548,55.813z"/>
		<path fill="#FFFFFF" d="M71.762,61.753c0.709,1.304,1.428,2.629,2.175,4.004c-0.707,0-1.355,0.011-2.002-0.011
			c-0.094-0.004-0.214-0.139-0.27-0.242c-0.569-1.056-1.134-2.113-1.685-3.181c-0.107-0.207-0.226-0.292-0.463-0.28
			c-0.435,0.02-0.873,0.005-1.342,0.005c0,1.235,0,2.443,0,3.681c-0.63,0-1.228,0-1.846,0c0-3.305,0-6.603,0-9.89
			c0.036-0.021,0.055-0.043,0.074-0.042c1.527,0.014,3.059-0.038,4.58,0.061c1.228,0.082,2.132,0.779,2.517,1.977
			c0.389,1.212,0.277,2.366-0.737,3.271C72.478,61.361,72.114,61.529,71.762,61.753z M68.155,57.416c0,0.552,0,1.055,0,1.559
			c0,0.5,0,1,0,1.521c0.533,0,1.015,0.019,1.496-0.005c0.379-0.018,0.765-0.043,1.129-0.137c0.614-0.154,0.992-0.699,1.009-1.354
			c0.017-0.691-0.321-1.248-0.942-1.438C69.974,57.295,69.074,57.441,68.155,57.416z"/>
		<path fill="#FFFFFF" d="M99.41,65.757c-0.652,0-1.247,0.009-1.841-0.01c-0.078-0.002-0.189-0.131-0.219-0.222
			c-0.163-0.489-0.313-0.982-0.447-1.48c-0.05-0.188-0.134-0.248-0.325-0.247c-1.079,0.009-2.158,0.009-3.236,0
			c-0.193-0.001-0.272,0.065-0.322,0.251c-0.134,0.497-0.284,0.991-0.449,1.479c-0.032,0.095-0.166,0.218-0.255,0.222
			c-0.583,0.021-1.167,0.01-1.792,0.01c0.039-0.149,0.063-0.276,0.104-0.396c1.048-3.086,2.103-6.172,3.14-9.262
			c0.084-0.252,0.194-0.33,0.447-0.318c0.449,0.018,0.901,0.029,1.347-0.004c0.34-0.025,0.481,0.093,0.588,0.414
			c0.704,2.113,1.432,4.222,2.153,6.332C98.665,63.581,99.027,64.641,99.41,65.757z M95.002,57.721
			c-0.023-0.001-0.045-0.003-0.068-0.004c-0.444,1.473-0.889,2.947-1.337,4.436c0.93,0,1.809,0,2.73,0
			C95.878,60.652,95.44,59.188,95.002,57.721z"/>
	</g>
	<rect x="40.428" y="-0.023" fill="#A9CF39" width="95.237" height="8.15"/>
</g>
</svg>
